<svg width="125" height="125" viewBox="0 0 125 125" fill="none" xmlns="http://www.w3.org/2000/svg">
<path d="M62.5 19.0104L13.0208 21.3542C10.1562 21.6146 8.07288 23.6979 8.07288 26.5625V96.875C8.07288 100 10.677 102.344 13.5416 102.083L48.4375 100C49.4791 100 50.5208 100.521 50.7812 101.302C51.5625 103.125 53.3854 103.646 55.7291 103.646H68.75C71.0937 103.646 72.9166 102.865 73.6979 101.302C73.9583 100.26 75.2604 99.7396 76.0416 100L110.937 102.083C114.062 102.344 116.406 100 116.406 96.875V26.5625C116.406 23.6979 114.323 21.6146 111.458 21.3542L62.5 19.0104Z" fill="#3D348B"/>
<path d="M111.979 21.3542L62.5 19.0104L13.0208 21.3542C10.1562 21.6146 8.07288 23.6979 8.07288 26.5625V35.6771C8.07288 32.8125 10.1562 30.7292 13.0208 30.4687L62.5 28.125L111.979 30.4687C114.844 30.7292 116.927 32.8125 116.927 35.6771V26.5625C116.927 23.9583 114.844 21.6146 111.979 21.3542Z" fill="#433999"/>
<path d="M62.5 19.0104L13.0208 21.3542C10.1562 21.6146 8.07288 23.6979 8.07288 26.5625V96.875C8.07288 100 10.677 102.344 13.5416 102.083L48.4375 100C49.4791 100 50.5208 100.521 50.7812 101.302C51.5625 103.125 53.3854 103.646 55.7291 103.646H68.75C71.0937 103.646 72.9166 102.865 73.6979 101.302C73.9583 100.26 75.2604 99.7396 76.0416 100L110.937 102.083C114.062 102.344 116.406 100 116.406 96.875V26.5625C116.406 23.6979 114.323 21.6146 111.458 21.3542L62.5 19.0104Z" stroke="#322C20" stroke-miterlimit="10" stroke-linecap="round" stroke-linejoin="round"/>
<path d="M66.4062 97.1354H58.8541C56.7708 97.1354 54.9479 95.3125 54.9479 93.2291V88.0208H70.5729V93.2291C70.3125 95.3125 68.4895 97.1354 66.4062 97.1354Z" fill="#525063" stroke="#322C20" stroke-miterlimit="10" stroke-linecap="round" stroke-linejoin="round"/>
<path opacity="0.15" d="M62.2396 111.458C86.6897 111.458 106.51 109.709 106.51 107.552C106.51 105.395 86.6897 103.646 62.2396 103.646C37.7895 103.646 17.9688 105.395 17.9688 107.552C17.9688 109.709 37.7895 111.458 62.2396 111.458Z" fill="#322C20"/>
<path d="M22.3958 19.0104L16.6666 26.0417C16.1458 26.8229 15.8854 27.8646 15.8854 28.9062V95.5729L22.3958 85.9375V19.0104Z" fill="#DDB577"/>
<path d="M102.604 19.0104L108.333 26.0417C108.854 26.8229 109.115 27.8646 109.115 28.9062V95.5729L102.604 85.9375V19.0104Z" fill="#DDB577"/>
<path d="M16.6666 26.3021C16.1458 27.0833 15.8854 28.125 15.8854 29.1667V38.2812C15.8854 37.2396 16.1458 36.1979 16.6666 35.4167L22.3958 28.3854V19.0104L16.6666 26.3021Z" fill="#E3BD81"/>
<path d="M108.333 26.3021L102.604 19.2708V28.3854L108.333 35.4166C108.854 36.1979 109.115 37.2396 109.115 38.2812V29.1666C109.115 28.125 108.854 27.0833 108.333 26.3021Z" fill="#E3BD81"/>
<path d="M22.3958 19.0104L16.6666 26.0417C16.1458 26.8229 15.8854 27.8646 15.8854 28.9062V95.5729L22.3958 85.9375V19.0104Z" stroke="#322C20" stroke-miterlimit="10" stroke-linecap="round" stroke-linejoin="round"/>
<path d="M102.604 19.0104L108.333 26.0417C108.854 26.8229 109.115 27.8646 109.115 28.9062V95.5729L102.604 85.9375V19.0104Z" stroke="#322C20" stroke-miterlimit="10" stroke-linecap="round" stroke-linejoin="round"/>
<path d="M62.4999 90.625V22.9167C62.4999 18.4896 59.1145 15.1042 54.6874 15.1042L24.7395 17.7083C23.4374 17.7083 22.3958 19.0104 22.3958 19.0104V94.5312L55.2083 93.4896C56.5103 91.9271 59.1145 90.625 62.4999 90.625Z" fill="#DDB577"/>
<path d="M70.3125 15.1042C65.8854 15.1042 62.5 18.4896 62.5 22.9167V90.625C65.8854 90.625 68.4896 91.9271 69.7917 93.4896L102.604 94.5312V19.0104C102.604 19.0104 101.562 17.7083 100.26 17.4479L70.3125 15.1042Z" fill="#DDB577"/>
<path d="M54.6874 15.1042L24.7395 17.7083C23.4374 17.7083 22.3958 19.0104 22.3958 19.0104V26.5625C22.3958 25.2604 23.4374 23.9583 24.7395 23.9583L54.6874 21.6146C59.1145 21.6146 62.4999 25 62.4999 29.4271V22.9167C62.4999 18.75 59.1145 15.1042 54.6874 15.1042Z" fill="#E3BD81"/>
<path d="M100.26 17.7083L70.3125 15.1042C65.8854 15.1042 62.5 18.4896 62.5 22.9167V29.4271C62.5 25 65.8854 21.6146 70.3125 21.6146L100.26 23.9583C101.562 23.9583 102.604 25.2604 102.604 26.5625V19.0104C102.604 19.0104 101.562 17.7083 100.26 17.7083Z" fill="#E3BD81"/>
<path d="M62.4999 90.625V22.9167C62.4999 18.4896 59.1145 15.1042 54.6874 15.1042L24.7395 17.7083C23.4374 17.7083 22.3958 19.0104 22.3958 19.0104V94.5312L55.2083 93.4896C56.5103 91.9271 59.1145 90.625 62.4999 90.625Z" stroke="#322C20" stroke-miterlimit="10" stroke-linecap="round" stroke-linejoin="round"/>
<path d="M70.3125 15.1042C65.8854 15.1042 62.5 18.4896 62.5 22.9167V90.625C65.8854 90.625 68.4896 91.9271 69.7917 93.4896L102.604 94.5312V19.0104C102.604 19.0104 101.562 17.7083 100.26 17.4479L70.3125 15.1042Z" stroke="#322C20" stroke-miterlimit="10" stroke-linecap="round" stroke-linejoin="round"/>
<path d="M62.5 90.625C61.9791 86.9791 58.5937 84.1146 54.6875 84.1146L22.3958 86.4583L15.8854 96.0937L55.2083 93.75C56.25 91.9271 59.1145 90.8854 62.5 90.625Z" fill="#B89B6E" stroke="#322C20" stroke-miterlimit="10" stroke-linecap="round" stroke-linejoin="round"/>
<path d="M69.7917 93.75L109.115 95.8333L102.604 86.1979L70.3125 84.1146C66.4063 84.1146 63.2813 86.9791 62.5 90.625C65.8854 90.8854 68.75 91.9271 69.7917 93.75Z" fill="#B89B6E" stroke="#322C20" stroke-miterlimit="10" stroke-linecap="round" stroke-linejoin="round"/>
<path d="M72.9166 24.2188L96.3541 26.5625" stroke="#322C20" stroke-miterlimit="10" stroke-linecap="round" stroke-linejoin="round"/>
<path d="M72.9166 34.375L96.3541 36.4583" stroke="#322C20" stroke-miterlimit="10" stroke-linecap="round" stroke-linejoin="round"/>
<path d="M72.9166 44.2708L96.3541 46.3541" stroke="#322C20" stroke-miterlimit="10" stroke-linecap="round" stroke-linejoin="round"/>
<path d="M72.9166 54.1667L96.3541 56.5104" stroke="#322C20" stroke-miterlimit="10" stroke-linecap="round" stroke-linejoin="round"/>
<path d="M72.9166 64.0625L96.3541 66.4062" stroke="#322C20" stroke-miterlimit="10" stroke-linecap="round" stroke-linejoin="round"/>
<path d="M72.9166 74.2188L96.3541 76.3021" stroke="#322C20" stroke-miterlimit="10" stroke-linecap="round" stroke-linejoin="round"/>
<path d="M53.3854 24.2188L29.9479 26.5625" stroke="#322C20" stroke-miterlimit="10" stroke-linecap="round" stroke-linejoin="round"/>
<path d="M53.3854 34.375L29.9479 36.4583" stroke="#322C20" stroke-miterlimit="10" stroke-linecap="round" stroke-linejoin="round"/>
<path d="M53.3854 44.2708L29.9479 46.3541" stroke="#322C20" stroke-miterlimit="10" stroke-linecap="round" stroke-linejoin="round"/>
<path d="M53.3854 54.1667L29.9479 56.5104" stroke="#322C20" stroke-miterlimit="10" stroke-linecap="round" stroke-linejoin="round"/>
<path d="M53.3854 64.0625L29.9479 66.4062" stroke="#322C20" stroke-miterlimit="10" stroke-linecap="round" stroke-linejoin="round"/>
<path d="M53.3854 74.2188L29.9479 76.3021" stroke="#322C20" stroke-miterlimit="10" stroke-linecap="round" stroke-linejoin="round"/>
</svg>
