<svg width="64" height="64" viewBox="0 0 64 64" fill="none" xmlns="http://www.w3.org/2000/svg">
<circle cx="32" cy="32" r="32" fill="#DDB577"/>
<path d="M10.125 18.0453C12.8906 16.8876 16.8563 15.6392 20.7125 15.2512C24.8688 14.832 28.3938 15.4484 30.4375 17.6041V48.0976C27.5156 46.4393 23.8125 46.2109 20.3969 46.5551C16.7094 46.9305 12.9906 47.9975 10.125 49.0925V18.0453ZM33.5625 17.6041C35.6062 15.4484 39.1313 14.832 43.2875 15.2512C47.1438 15.6392 51.1094 16.8876 53.875 18.0453V49.0925C51.0063 47.9975 47.2906 46.9274 43.6031 46.5582C40.1844 46.2109 36.4844 46.4362 33.5625 48.0976V17.6041ZM32 14.7757C28.9219 12.1256 24.4594 11.7313 20.3969 12.1381C15.6656 12.6168 10.8906 14.2406 7.91563 15.5954C7.64265 15.7197 7.41117 15.92 7.24882 16.1725C7.08646 16.4249 7.00008 16.7188 7 17.019V51.436C7.00007 51.6978 7.06574 51.9553 7.19099 52.1851C7.31624 52.4148 7.49707 52.6095 7.71691 52.7511C7.93675 52.8928 8.18858 52.9769 8.44932 52.9959C8.71007 53.0148 8.9714 52.968 9.20938 52.8596C11.9656 51.6081 16.4063 50.1031 20.7094 49.6682C25.1125 49.2239 28.8031 49.9404 30.7813 52.4122C30.9277 52.5949 31.1132 52.7424 31.3241 52.8437C31.5351 52.945 31.766 52.9976 32 52.9976C32.234 52.9976 32.4649 52.945 32.6759 52.8437C32.8868 52.7424 33.0723 52.5949 33.2188 52.4122C35.1969 49.9404 38.8875 49.2239 43.2875 49.6682C47.5938 50.1031 52.0375 51.6081 54.7906 52.8596C55.0286 52.968 55.2899 53.0148 55.5507 52.9959C55.8114 52.9769 56.0632 52.8928 56.2831 52.7511C56.5029 52.6095 56.6838 52.4148 56.809 52.1851C56.9343 51.9553 56.9999 51.6978 57 51.436V17.019C56.9999 16.7188 56.9135 16.4249 56.7512 16.1725C56.5888 15.92 56.3573 15.7197 56.0844 15.5954C53.1094 14.2406 48.3344 12.6168 43.6031 12.1381C39.5406 11.7282 35.0781 12.1256 32 14.7757Z" fill="#322C20"/>
</svg>
